<svg xmlns="http://www.w3.org/2000/svg" xmlns:xlink="http://www.w3.org/1999/xlink" viewBox="-1.5 1.5 39 6" stroke-linecap="round" stroke-linejoin="round" height="16px" width="83.2px" aria-label="boomshak" preserveAspectRatio="xMinYMid meet"><g><path fill="none" stroke="#000000" stroke-width="2.8" d="M0,5 L0,6 L2,6 L2,5 L1,4 L1,3 L0,3 L0,5"></path><path fill="none" stroke="#fff1e8" stroke-width="1" d="M0,5 L0,6 L2,6 L2,5 L1,4 L1,3 L0,3 L0,5"></path></g><g><path fill="none" stroke="#000000" stroke-width="2.8" d="M4.8,5 L4.8,6 L5.8,6 L6.8,5 L6.8,3 L5.8,3 L4.8,4 L4.8,5"></path><path fill="none" stroke="#fff1e8" stroke-width="1" d="M4.8,5 L4.8,6 L5.8,6 L6.8,5 L6.8,3 L5.8,3 L4.8,4 L4.8,5"></path></g><g><path fill="none" stroke="#000000" stroke-width="2.8" d="M9.6,5 L9.6,6 L10.6,6 L11.6,5 L11.6,3 L10.6,3 L9.6,4 L9.6,5"></path><path fill="none" stroke="#fff1e8" stroke-width="1" d="M9.6,5 L9.6,6 L10.6,6 L11.6,5 L11.6,3 L10.6,3 L9.6,4 L9.6,5"></path></g><g><path fill="none" stroke="#000000" stroke-width="2.8" d="M14.399999999999999,6 L14.399999999999999,3 L15.399999999999999,4 L16.4,3 L16.4,6"></path><path fill="none" stroke="#fff1e8" stroke-width="1" d="M14.399999999999999,6 L14.399999999999999,3 L15.399999999999999,4 L16.4,3 L16.4,6"></path></g><g><path fill="none" stroke="#000000" stroke-width="2.8" d="M21.2,3 L20.2,3 L19.2,4 L21.2,5 L20.2,6 L19.2,6"></path><path fill="none" stroke="#fff1e8" stroke-width="1" d="M21.2,3 L20.2,3 L19.2,4 L21.2,5 L20.2,6 L19.2,6"></path></g><g><path fill="none" stroke="#000000" stroke-width="2.8" d="M24,3 L24,6 M26,3 L26,6 M24,5 L26,5"></path><path fill="none" stroke="#fff1e8" stroke-width="1" d="M24,3 L24,6 M26,3 L26,6 M24,5 L26,5"></path></g><g><path fill="none" stroke="#000000" stroke-width="2.8" d="M28.799999999999997,6 L28.799999999999997,3 L30.799999999999997,3 L30.799999999999997,6 M28.799999999999997,5 L30.799999999999997,5"></path><path fill="none" stroke="#fff1e8" stroke-width="1" d="M28.799999999999997,6 L28.799999999999997,3 L30.799999999999997,3 L30.799999999999997,6 M28.799999999999997,5 L30.799999999999997,5"></path></g><g><path fill="none" stroke="#000000" stroke-width="2.8" d="M33.6,3 L33.6,6 M33.6,5 L35.6,3 M34.6,4 L35.6,5 L35.6,6"></path><path fill="none" stroke="#fff1e8" stroke-width="1" d="M33.6,3 L33.6,6 M33.6,5 L35.6,3 M34.6,4 L35.6,5 L35.6,6"></path></g></svg>