<svg xmlns="http://www.w3.org/2000/svg" xmlns:xlink="http://www.w3.org/1999/xlink" viewBox="-2 -3 78 48" stroke-linecap="round" stroke-linejoin="round" height="16px" width="166.4px" aria-label="supported characters" preserveAspectRatio="xMinYMin meet"><g><path fill="none" stroke="#000000" stroke-width="2.8" d="M0,6 L0,2 L2,2 L2,6 M0,4 L2,4"></path><path fill="none" stroke="#fff1e8" stroke-width="1" d="M0,6 L0,2 L2,2 L2,6 M0,4 L2,4"></path></g><g><path fill="none" stroke="#000000" stroke-width="2.8" d="M4.8,6 L4.8,3 L6.8,3 L6.8,6 M4.8,5 L6.8,5"></path><path fill="none" stroke="#fff1e8" stroke-width="1" d="M4.8,6 L4.8,3 L6.8,3 L6.8,6 M4.8,5 L6.8,5"></path></g><g><path fill="none" stroke="#000000" stroke-width="2.8" d="M9.6,4 L9.6,6 L11.6,6 L11.6,5 L10.6,4 L11.6,3 L11.6,2 L9.6,2 L9.6,4"></path><path fill="none" stroke="#fff1e8" stroke-width="1" d="M9.6,4 L9.6,6 L11.6,6 L11.6,5 L10.6,4 L11.6,3 L11.6,2 L9.6,2 L9.6,4"></path></g><g><path fill="none" stroke="#000000" stroke-width="2.8" d="M14.399999999999999,5 L14.399999999999999,6 L16.4,6 L16.4,5 L15.399999999999999,4 L15.399999999999999,3 L14.399999999999999,3 L14.399999999999999,5"></path><path fill="none" stroke="#fff1e8" stroke-width="1" d="M14.399999999999999,5 L14.399999999999999,6 L16.4,6 L16.4,5 L15.399999999999999,4 L15.399999999999999,3 L14.399999999999999,3 L14.399999999999999,5"></path></g><g><path fill="none" stroke="#000000" stroke-width="2.8" d="M21.2,2 L20.2,2 L19.2,3 L19.2,5 L20.2,6 L21.2,6"></path><path fill="none" stroke="#fff1e8" stroke-width="1" d="M21.2,2 L20.2,2 L19.2,3 L19.2,5 L20.2,6 L21.2,6"></path></g><g><path fill="none" stroke="#000000" stroke-width="2.8" d="M26,3 L24,3 L24,6 L26,6"></path><path fill="none" stroke="#fff1e8" stroke-width="1" d="M26,3 L24,3 L24,6 L26,6"></path></g><g><path fill="none" stroke="#000000" stroke-width="2.8" d="M30.799999999999997,4 L30.799999999999997,3 L29.799999999999997,2 L28.799999999999997,2 L28.799999999999997,6 L29.799999999999997,6 L30.799999999999997,5 L30.799999999999997,4"></path><path fill="none" stroke="#fff1e8" stroke-width="1" d="M30.799999999999997,4 L30.799999999999997,3 L29.799999999999997,2 L28.799999999999997,2 L28.799999999999997,6 L29.799999999999997,6 L30.799999999999997,5 L30.799999999999997,4"></path></g><g><path fill="none" stroke="#000000" stroke-width="2.8" d="M33.6,4 L33.6,6 L34.6,6 L35.6,5 L35.6,4 L34.6,3 L33.6,3 L33.6,5"></path><path fill="none" stroke="#fff1e8" stroke-width="1" d="M33.6,4 L33.6,6 L34.6,6 L35.6,5 L35.6,4 L34.6,3 L33.6,3 L33.6,5"></path></g><g><path fill="none" stroke="#000000" stroke-width="2.8" d="M40.4,2 L38.4,2 L38.4,6 L40.4,6 M38.4,4 L39.4,4"></path><path fill="none" stroke="#fff1e8" stroke-width="1" d="M40.4,2 L38.4,2 L38.4,6 L40.4,6 M38.4,4 L39.4,4"></path></g><g><path fill="none" stroke="#000000" stroke-width="2.8" d="M45.199999999999996,3 L43.199999999999996,3 L43.199999999999996,6 L45.199999999999996,6 M44.199999999999996,4.5 L43.199999999999996,4.5"></path><path fill="none" stroke="#fff1e8" stroke-width="1" d="M45.199999999999996,3 L43.199999999999996,3 L43.199999999999996,6 L45.199999999999996,6 M44.199999999999996,4.5 L43.199999999999996,4.5"></path></g><g><path fill="none" stroke="#000000" stroke-width="2.8" d="M50,2 L48,2 L48,6 M48,4 L49,4"></path><path fill="none" stroke="#fff1e8" stroke-width="1" d="M50,2 L48,2 L48,6 M48,4 L49,4"></path></g><g><path fill="none" stroke="#000000" stroke-width="2.8" d="M54.8,3 L52.8,3 L52.8,4 L52.8,6 M53.8,5 L52.8,5"></path><path fill="none" stroke="#fff1e8" stroke-width="1" d="M54.8,3 L52.8,3 L52.8,4 L52.8,6 M53.8,5 L52.8,5"></path></g><g><path fill="none" stroke="#000000" stroke-width="2.8" d="M59.599999999999994,2 L58.599999999999994,2 L57.599999999999994,3 L57.599999999999994,6 L59.599999999999994,6 L59.599999999999994,5"></path><path fill="none" stroke="#fff1e8" stroke-width="1" d="M59.599999999999994,2 L58.599999999999994,2 L57.599999999999994,3 L57.599999999999994,6 L59.599999999999994,6 L59.599999999999994,5"></path></g><g><path fill="none" stroke="#000000" stroke-width="2.8" d="M64.4,3 L62.4,3 L62.4,6 L64.4,6 L64.4,5"></path><path fill="none" stroke="#fff1e8" stroke-width="1" d="M64.4,3 L62.4,3 L62.4,6 L64.4,6 L64.4,5"></path></g><g><path fill="none" stroke="#000000" stroke-width="2.8" d="M67.2,2 L67.2,6 M69.2,2 L69.2,6 M67.2,4 L69.2,4"></path><path fill="none" stroke="#fff1e8" stroke-width="1" d="M67.2,2 L67.2,6 M69.2,2 L69.2,6 M67.2,4 L69.2,4"></path></g><g><path fill="none" stroke="#000000" stroke-width="2.8" d="M72,3 L72,6 M74,3 L74,6 M72,5 L74,5"></path><path fill="none" stroke="#fff1e8" stroke-width="1" d="M72,3 L72,6 M74,3 L74,6 M72,5 L74,5"></path></g><g><path fill="none" stroke="#000000" stroke-width="2.8" d="M0,18 L2,18 M0,22 L2,22 M1,18 L1,22"></path><path fill="none" stroke="#fff1e8" stroke-width="1" d="M0,18 L2,18 M0,22 L2,22 M1,18 L1,22"></path></g><g><path fill="none" stroke="#000000" stroke-width="2.8" d="M4.8,19 L6.8,19 M4.8,22 L6.8,22 M5.8,19 L5.8,22"></path><path fill="none" stroke="#fff1e8" stroke-width="1" d="M4.8,19 L6.8,19 M4.8,22 L6.8,22 M5.8,19 L5.8,22"></path></g><g><path fill="none" stroke="#000000" stroke-width="2.8" d="M9.6,18 L11.6,18 M9.6,22 L10.6,22 L10.6,18.1"></path><path fill="none" stroke="#fff1e8" stroke-width="1" d="M9.6,18 L11.6,18 M9.6,22 L10.6,22 L10.6,18.1"></path></g><g><path fill="none" stroke="#000000" stroke-width="2.8" d="M14.399999999999999,19 L16.4,19 M14.399999999999999,22 L15.399999999999999,22 L15.399999999999999,19"></path><path fill="none" stroke="#fff1e8" stroke-width="1" d="M14.399999999999999,19 L16.4,19 M14.399999999999999,22 L15.399999999999999,22 L15.399999999999999,19"></path></g><g><path fill="none" stroke="#000000" stroke-width="2.8" d="M19.2,18 L19.2,22 M19.2,20 L20.2,20 L21.2,19 L21.2,18 M20.2,20 L21.2,21 L21.2,22"></path><path fill="none" stroke="#fff1e8" stroke-width="1" d="M19.2,18 L19.2,22 M19.2,20 L20.2,20 L21.2,19 L21.2,18 M20.2,20 L21.2,21 L21.2,22"></path></g><g><path fill="none" stroke="#000000" stroke-width="2.8" d="M24,19 L24,22 M24,21 L26,19 M25,20 L26,21 L26,22"></path><path fill="none" stroke="#fff1e8" stroke-width="1" d="M24,19 L24,22 M24,21 L26,19 M25,20 L26,21 L26,22"></path></g><g><path fill="none" stroke="#000000" stroke-width="2.8" d="M28.799999999999997,18 L28.799999999999997,22 L30.799999999999997,22"></path><path fill="none" stroke="#fff1e8" stroke-width="1" d="M28.799999999999997,18 L28.799999999999997,22 L30.799999999999997,22"></path></g><g><path fill="none" stroke="#000000" stroke-width="2.8" d="M33.6,19 L33.6,22 L35.6,22"></path><path fill="none" stroke="#fff1e8" stroke-width="1" d="M33.6,19 L33.6,22 L35.6,22"></path></g><g><path fill="none" stroke="#000000" stroke-width="2.8" d="M38.4,22 L38.4,18 L39.4,19 L40.4,18 L40.4,22"></path><path fill="none" stroke="#fff1e8" stroke-width="1" d="M38.4,22 L38.4,18 L39.4,19 L40.4,18 L40.4,22"></path></g><g><path fill="none" stroke="#000000" stroke-width="2.8" d="M43.199999999999996,22 L43.199999999999996,19 L44.199999999999996,20 L45.199999999999996,19 L45.199999999999996,22"></path><path fill="none" stroke="#fff1e8" stroke-width="1" d="M43.199999999999996,22 L43.199999999999996,19 L44.199999999999996,20 L45.199999999999996,19 L45.199999999999996,22"></path></g><g><path fill="none" stroke="#000000" stroke-width="2.8" d="M48,22 L48,18 L49,18 L50,19 L50,22"></path><path fill="none" stroke="#fff1e8" stroke-width="1" d="M48,22 L48,18 L49,18 L50,19 L50,22"></path></g><g><path fill="none" stroke="#000000" stroke-width="2.8" d="M52.8,22 L52.8,19 L53.8,19 L54.8,20 L54.8,22"></path><path fill="none" stroke="#fff1e8" stroke-width="1" d="M52.8,22 L52.8,19 L53.8,19 L54.8,20 L54.8,22"></path></g><g><path fill="none" stroke="#000000" stroke-width="2.8" d="M57.599999999999994,20 L57.599999999999994,22 L58.599999999999994,22 L59.599999999999994,21 L59.599999999999994,18 L58.599999999999994,18 L57.599999999999994,19 L57.599999999999994,20"></path><path fill="none" stroke="#fff1e8" stroke-width="1" d="M57.599999999999994,20 L57.599999999999994,22 L58.599999999999994,22 L59.599999999999994,21 L59.599999999999994,18 L58.599999999999994,18 L57.599999999999994,19 L57.599999999999994,20"></path></g><g><path fill="none" stroke="#000000" stroke-width="2.8" d="M62.4,21 L62.4,22 L63.4,22 L64.4,21 L64.4,19 L63.4,19 L62.4,20 L62.4,21"></path><path fill="none" stroke="#fff1e8" stroke-width="1" d="M62.4,21 L62.4,22 L63.4,22 L64.4,21 L64.4,19 L63.4,19 L62.4,20 L62.4,21"></path></g><g><path fill="none" stroke="#000000" stroke-width="2.8" d="M67.2,22 L67.2,18 L69.2,18 L69.2,20 L67.2,20"></path><path fill="none" stroke="#fff1e8" stroke-width="1" d="M67.2,22 L67.2,18 L69.2,18 L69.2,20 L67.2,20"></path></g><g><path fill="none" stroke="#000000" stroke-width="2.8" d="M72,22 L72,19 L74,19 L74,21 L72,21"></path><path fill="none" stroke="#fff1e8" stroke-width="1" d="M72,22 L72,19 L74,19 L74,21 L72,21"></path></g><g><path fill="none" stroke="#000000" stroke-width="2.8" d="M2,38 L1,38 L1,37 L0,37 L0,35 L1,34 L2,35 L2,36 L1,37"></path><path fill="none" stroke="#fff1e8" stroke-width="1" d="M2,38 L1,38 L1,37 L0,37 L0,35 L1,34 L2,35 L2,36 L1,37"></path></g><g><path fill="none" stroke="#000000" stroke-width="2.8" d="M6.8,38 L5.8,38 L5.8,37 L4.8,37 L4.8,36 L5.8,35 L6.8,36 L5.8,37"></path><path fill="none" stroke="#fff1e8" stroke-width="1" d="M6.8,38 L5.8,38 L5.8,37 L4.8,37 L4.8,36 L5.8,35 L6.8,36 L5.8,37"></path></g><g><path fill="none" stroke="#000000" stroke-width="2.8" d="M9.6,38 L9.6,34 L11.6,34 L11.6,35 L10.6,36 L11.6,37 L11.6,38"></path><path fill="none" stroke="#fff1e8" stroke-width="1" d="M9.6,38 L9.6,34 L11.6,34 L11.6,35 L10.6,36 L11.6,37 L11.6,38"></path></g><g><path fill="none" stroke="#000000" stroke-width="2.8" d="M14.399999999999999,38 L14.399999999999999,35 L16.4,35 L16.4,36 L15.399999999999999,37 L16.4,38"></path><path fill="none" stroke="#fff1e8" stroke-width="1" d="M14.399999999999999,38 L14.399999999999999,35 L16.4,35 L16.4,36 L15.399999999999999,37 L16.4,38"></path></g><g><path fill="none" stroke="#000000" stroke-width="2.8" d="M21.2,34 L20.2,34 L19.2,35 L19.2,36 L21.2,36 L21.2,37 L20.2,38 L19.2,38"></path><path fill="none" stroke="#fff1e8" stroke-width="1" d="M21.2,34 L20.2,34 L19.2,35 L19.2,36 L21.2,36 L21.2,37 L20.2,38 L19.2,38"></path></g><g><path fill="none" stroke="#000000" stroke-width="2.8" d="M26,35 L25,35 L24,36 L26,37 L25,38 L24,38"></path><path fill="none" stroke="#fff1e8" stroke-width="1" d="M26,35 L25,35 L24,36 L26,37 L25,38 L24,38"></path></g><g><path fill="none" stroke="#000000" stroke-width="2.8" d="M28.799999999999997,34 L30.799999999999997,34 M29.799999999999997,34 L29.799999999999997,38"></path><path fill="none" stroke="#fff1e8" stroke-width="1" d="M28.799999999999997,34 L30.799999999999997,34 M29.799999999999997,34 L29.799999999999997,38"></path></g><g><path fill="none" stroke="#000000" stroke-width="2.8" d="M33.6,35 L35.6,35 M34.6,35 L34.6,38"></path><path fill="none" stroke="#fff1e8" stroke-width="1" d="M33.6,35 L35.6,35 M34.6,35 L34.6,38"></path></g><g><path fill="none" stroke="#000000" stroke-width="2.8" d="M38.4,34 L38.4,37 L39.4,38 L40.4,38 L40.4,34"></path><path fill="none" stroke="#fff1e8" stroke-width="1" d="M38.4,34 L38.4,37 L39.4,38 L40.4,38 L40.4,34"></path></g><g><path fill="none" stroke="#000000" stroke-width="2.8" d="M43.199999999999996,35 L43.199999999999996,37 L44.199999999999996,38 L45.199999999999996,38 L45.199999999999996,35"></path><path fill="none" stroke="#fff1e8" stroke-width="1" d="M43.199999999999996,35 L43.199999999999996,37 L44.199999999999996,38 L45.199999999999996,38 L45.199999999999996,35"></path></g><g><path fill="none" stroke="#000000" stroke-width="2.8" d="M48,34 L48,37 L49,38 L50,37 L50,34"></path><path fill="none" stroke="#fff1e8" stroke-width="1" d="M48,34 L48,37 L49,38 L50,37 L50,34"></path></g><g><path fill="none" stroke="#000000" stroke-width="2.8" d="M52.8,35 L52.8,37 L53.8,38 L54.8,37 L54.8,35"></path><path fill="none" stroke="#fff1e8" stroke-width="1" d="M52.8,35 L52.8,37 L53.8,38 L54.8,37 L54.8,35"></path></g><g><path fill="none" stroke="#000000" stroke-width="2.8" d="M57.599999999999994,34 L57.599999999999994,38 L58.599999999999994,37 L59.599999999999994,38 L59.599999999999994,34"></path><path fill="none" stroke="#fff1e8" stroke-width="1" d="M57.599999999999994,34 L57.599999999999994,38 L58.599999999999994,37 L59.599999999999994,38 L59.599999999999994,34"></path></g><g><path fill="none" stroke="#000000" stroke-width="2.8" d="M62.4,35 L62.4,38 L63.4,37 L64.4,38 L64.4,35"></path><path fill="none" stroke="#fff1e8" stroke-width="1" d="M62.4,35 L62.4,38 L63.4,37 L64.4,38 L64.4,35"></path></g><g><path fill="none" stroke="#000000" stroke-width="2.8" d="M67.2,34 L67.2,35 L68.2,36 L69.2,37 L69.2,38 M69.2,34 L69.2,35 L68.2,36 L67.2,37 L67.2,38"></path><path fill="none" stroke="#fff1e8" stroke-width="1" d="M67.2,34 L67.2,35 L68.2,36 L69.2,37 L69.2,38 M69.2,34 L69.2,35 L68.2,36 L67.2,37 L67.2,38"></path></g><g><path fill="none" stroke="#000000" stroke-width="2.8" d="M72,35 L74,37 L74,38 M74,35 L72,37 L72,38"></path><path fill="none" stroke="#fff1e8" stroke-width="1" d="M72,35 L74,37 L74,38 M74,35 L72,37 L72,38"></path></g><g><path fill="none" stroke="#000000" stroke-width="2.8" d="M2,50 L2,54 L0,54 M0,50 L0,52 L2,52"></path><path fill="none" stroke="#fff1e8" stroke-width="1" d="M2,50 L2,54 L0,54 M0,50 L0,52 L2,52"></path></g><g><path fill="none" stroke="#000000" stroke-width="2.8" d="M6.8,51 L6.8,54 L4.8,54 M4.8,51 L4.8,52 L6.8,52"></path><path fill="none" stroke="#fff1e8" stroke-width="1" d="M6.8,51 L6.8,54 L4.8,54 M4.8,51 L4.8,52 L6.8,52"></path></g><g><path fill="none" stroke="#000000" stroke-width="2.8" d="M9.6,50 L11.6,50 L11.6,51 L9.6,53 L9.6,54 L11.6,54"></path><path fill="none" stroke="#fff1e8" stroke-width="1" d="M9.6,50 L11.6,50 L11.6,51 L9.6,53 L9.6,54 L11.6,54"></path></g><g><path fill="none" stroke="#000000" stroke-width="2.8" d="M14.399999999999999,51 L16.4,51 L16.4,52 L14.399999999999999,53 L14.399999999999999,54 L16.4,54"></path><path fill="none" stroke="#fff1e8" stroke-width="1" d="M14.399999999999999,51 L16.4,51 L16.4,52 L14.399999999999999,53 L14.399999999999999,54 L16.4,54"></path></g><g><path fill="none" stroke="#000000" stroke-width="2.8" d="M19.2,50 L21.2,50 L21.2,54 L19.2,54 L19.2,50"></path><path fill="none" stroke="#fff1e8" stroke-width="1" d="M19.2,50 L21.2,50 L21.2,54 L19.2,54 L19.2,50"></path></g><g><path fill="none" stroke="#000000" stroke-width="2.8" d="M24,50 L25,50 L25,54 M24,54 L26,54"></path><path fill="none" stroke="#fff1e8" stroke-width="1" d="M24,50 L25,50 L25,54 M24,54 L26,54"></path></g><g><path fill="none" stroke="#000000" stroke-width="2.8" d="M28.799999999999997,50 L30.799999999999997,50 L30.799999999999997,52 L28.799999999999997,52 L28.799999999999997,54 L30.799999999999997,54"></path><path fill="none" stroke="#fff1e8" stroke-width="1" d="M28.799999999999997,50 L30.799999999999997,50 L30.799999999999997,52 L28.799999999999997,52 L28.799999999999997,54 L30.799999999999997,54"></path></g><g><path fill="none" stroke="#000000" stroke-width="2.8" d="M33.6,50 L35.6,50 L35.6,51 L34.6,52 L35.6,53 L35.6,54 L33.6,54"></path><path fill="none" stroke="#fff1e8" stroke-width="1" d="M33.6,50 L35.6,50 L35.6,51 L34.6,52 L35.6,53 L35.6,54 L33.6,54"></path></g><g><path fill="none" stroke="#000000" stroke-width="2.8" d="M38.4,50 L38.4,52 L40.4,52 M40.4,50 L40.4,54"></path><path fill="none" stroke="#fff1e8" stroke-width="1" d="M38.4,50 L38.4,52 L40.4,52 M40.4,50 L40.4,54"></path></g><g><path fill="none" stroke="#000000" stroke-width="2.8" d="M45.199999999999996,50 L43.199999999999996,50 L43.199999999999996,52 L45.199999999999996,52 L45.199999999999996,54 L43.199999999999996,54"></path><path fill="none" stroke="#fff1e8" stroke-width="1" d="M45.199999999999996,50 L43.199999999999996,50 L43.199999999999996,52 L45.199999999999996,52 L45.199999999999996,54 L43.199999999999996,54"></path></g><g><path fill="none" stroke="#000000" stroke-width="2.8" d="M48,50 L48,54 L50,54 L50,52 L48,52"></path><path fill="none" stroke="#fff1e8" stroke-width="1" d="M48,50 L48,54 L50,54 L50,52 L48,52"></path></g><g><path fill="none" stroke="#000000" stroke-width="2.8" d="M52.8,50 L54.8,50 L54.8,54"></path><path fill="none" stroke="#fff1e8" stroke-width="1" d="M52.8,50 L54.8,50 L54.8,54"></path></g><g><path fill="none" stroke="#000000" stroke-width="2.8" d="M58.599999999999994,50 L57.599999999999994,50 L59.599999999999994,50 L59.599999999999994,51 L58.599999999999994,52 L59.599999999999994,53 L59.599999999999994,54 L57.599999999999994,54 L57.599999999999994,53 L58.599999999999994,52 L57.599999999999994,51 L57.599999999999994,50 L58.599999999999994,50"></path><path fill="none" stroke="#fff1e8" stroke-width="1" d="M58.599999999999994,50 L57.599999999999994,50 L59.599999999999994,50 L59.599999999999994,51 L58.599999999999994,52 L59.599999999999994,53 L59.599999999999994,54 L57.599999999999994,54 L57.599999999999994,53 L58.599999999999994,52 L57.599999999999994,51 L57.599999999999994,50 L58.599999999999994,50"></path></g><g><path fill="none" stroke="#000000" stroke-width="2.8" d="M64.4,52 L62.4,52 L62.4,50 L64.4,50 L64.4,54"></path><path fill="none" stroke="#fff1e8" stroke-width="1" d="M64.4,52 L62.4,52 L62.4,50 L64.4,50 L64.4,54"></path></g><g><path fill="none" stroke="#000000" stroke-width="2.8" d="M68.2,50 L68.2,52 M68.2,54 L68.2,54"></path><path fill="none" stroke="#fff1e8" stroke-width="1" d="M68.2,50 L68.2,52 M68.2,54 L68.2,54"></path></g><g><path fill="none" stroke="#000000" stroke-width="2.8" d="M74,54 L73,54 L72,53 L72,51 L73,50 L74,51 L74,52"></path><path fill="none" stroke="#fff1e8" stroke-width="1" d="M74,54 L73,54 L72,53 L72,51 L73,50 L74,51 L74,52"></path></g><g><path fill="none" stroke="#000000" stroke-width="2.8" d="M0,67 L2,67 M0,69 L2,69 M0.5,66 L0.5,70 M1.5,66 L1.5,70"></path><path fill="none" stroke="#fff1e8" stroke-width="1" d="M0,67 L2,67 M0,69 L2,69 M0.5,66 L0.5,70 M1.5,66 L1.5,70"></path></g><g><path fill="none" stroke="#000000" stroke-width="2.8" d="M6.8,66.5 L5.8,66.5 L4.8,67.5 L6.8,68.5 L5.8,69.5 L4.8,69.5 M5.8,66 L5.8,70"></path><path fill="none" stroke="#fff1e8" stroke-width="1" d="M6.8,66.5 L5.8,66.5 L4.8,67.5 L6.8,68.5 L5.8,69.5 L4.8,69.5 M5.8,66 L5.8,70"></path></g><g><path fill="none" stroke="#000000" stroke-width="2.8" d="M9.6,66 L9.6,66 M11.6,70 L11.6,70 M9.6,70 L11.6,66"></path><path fill="none" stroke="#fff1e8" stroke-width="1" d="M9.6,66 L9.6,66 M11.6,70 L11.6,70 M9.6,70 L11.6,66"></path></g><g><path fill="none" stroke="#000000" stroke-width="2.8" d="M14.399999999999999,67 L15.399999999999999,66 L16.4,67"></path><path fill="none" stroke="#fff1e8" stroke-width="1" d="M14.399999999999999,67 L15.399999999999999,66 L16.4,67"></path></g><g><path fill="none" stroke="#000000" stroke-width="2.8" d="M21.2,70 L20.2,69 L20.2,68 L20.2,66 L19.2,66 L19.2,70 L20.2,70 L21.2,69"></path><path fill="none" stroke="#fff1e8" stroke-width="1" d="M21.2,70 L20.2,69 L20.2,68 L20.2,66 L19.2,66 L19.2,70 L20.2,70 L21.2,69"></path></g><g><path fill="none" stroke="#000000" stroke-width="2.8" d="M25,67 L25,69 M24,68 L26,68 M24,67 L26,69 M26,67 L24,69"></path><path fill="none" stroke="#fff1e8" stroke-width="1" d="M25,67 L25,69 M24,68 L26,68 M24,67 L26,69 M26,67 L24,69"></path></g><g><path fill="none" stroke="#000000" stroke-width="2.8" d="M29.799999999999997,66 L28.799999999999997,67 L28.799999999999997,69 L29.799999999999997,70"></path><path fill="none" stroke="#fff1e8" stroke-width="1" d="M29.799999999999997,66 L28.799999999999997,67 L28.799999999999997,69 L29.799999999999997,70"></path></g><g><path fill="none" stroke="#000000" stroke-width="2.8" d="M34.6,66 L35.6,67 L35.6,69 L34.6,70"></path><path fill="none" stroke="#fff1e8" stroke-width="1" d="M34.6,66 L35.6,67 L35.6,69 L34.6,70"></path></g><g><path fill="none" stroke="#000000" stroke-width="2.8" d="M40.4,66 L39.4,66 L39.4,70 L40.4,70 M38.4,68 L39.4,68"></path><path fill="none" stroke="#fff1e8" stroke-width="1" d="M40.4,66 L39.4,66 L39.4,70 L40.4,70 M38.4,68 L39.4,68"></path></g><g><path fill="none" stroke="#000000" stroke-width="2.8" d="M43.199999999999996,66 L44.199999999999996,66 L44.199999999999996,70 L43.199999999999996,70 M45.199999999999996,68 L44.199999999999996,68"></path><path fill="none" stroke="#fff1e8" stroke-width="1" d="M43.199999999999996,66 L44.199999999999996,66 L44.199999999999996,70 L43.199999999999996,70 M45.199999999999996,68 L44.199999999999996,68"></path></g><g><path fill="none" stroke="#000000" stroke-width="2.8" d="M49,66 L48,66 L48,70 L49,70"></path><path fill="none" stroke="#fff1e8" stroke-width="1" d="M49,66 L48,66 L48,70 L49,70"></path></g><g><path fill="none" stroke="#000000" stroke-width="2.8" d="M53.8,66 L54.8,66 L54.8,70 L53.8,70"></path><path fill="none" stroke="#fff1e8" stroke-width="1" d="M53.8,66 L54.8,66 L54.8,70 L53.8,70"></path></g><g><path fill="none" stroke="#000000" stroke-width="2.8" d="M59.599999999999994,66 L57.599999999999994,68 L59.599999999999994,70"></path><path fill="none" stroke="#fff1e8" stroke-width="1" d="M59.599999999999994,66 L57.599999999999994,68 L59.599999999999994,70"></path></g><g><path fill="none" stroke="#000000" stroke-width="2.8" d="M62.4,66 L64.4,68 L62.4,70"></path><path fill="none" stroke="#fff1e8" stroke-width="1" d="M62.4,66 L64.4,68 L62.4,70"></path></g><g><path fill="none" stroke="#000000" stroke-width="2.8" d="M67.2,66 L69.2,66 L69.2,68 L68.2,68 M68.2,70 L68.2,70"></path><path fill="none" stroke="#fff1e8" stroke-width="1" d="M67.2,66 L69.2,66 L69.2,68 L68.2,68 M68.2,70 L68.2,70"></path></g><g><path fill="none" stroke="#000000" stroke-width="2.8" d="M73,66 L73,70"></path><path fill="none" stroke="#fff1e8" stroke-width="1" d="M73,66 L73,70"></path></g></svg>